<?xml version="1.0" encoding="UTF-8"?>
<svg version="1.1" xmlns="http://www.w3.org/2000/svg" width="142" height="73">
<path d="M0 0 C4.40758677 4.20144128 7.3258033 8.6998081 8.75390625 14.671875 C8.78062779 16.33832744 8.78476516 18.00549404 8.75390625 19.671875 C6.23360646 19.89576718 3.71393368 20.10129578 1.19140625 20.296875 C0.13469727 20.39355469 0.13469727 20.39355469 -0.94335938 20.4921875 C-5.85969376 20.8546822 -9.6130663 20.4167041 -14.24609375 18.671875 C-15.30859375 16.734375 -15.30859375 16.734375 -16.24609375 14.671875 C-20.31351804 12.08351409 -23.44299171 10.97142262 -28.24609375 11.671875 C-32.59092459 13.97207956 -35.35762881 16.09980198 -37.24609375 20.671875 C-38.76090164 27.36521217 -38.57591687 33.54077211 -35.24609375 39.671875 C-32.47349076 41.60985763 -32.47349076 41.60985763 -30.24609375 42.671875 C-29.41078125 43.22875 -29.41078125 43.22875 -28.55859375 43.796875 C-25.08578368 45.11091124 -22.80503408 44.60843825 -19.24609375 43.671875 C-16.66311594 41.48195903 -14.76193531 39.70355812 -13.24609375 36.671875 C-11.26609375 36.671875 -9.28609375 36.671875 -7.24609375 36.671875 C-6.75109375 35.681875 -6.75109375 35.681875 -6.24609375 34.671875 C-6.24609375 35.331875 -6.24609375 35.991875 -6.24609375 36.671875 C-0.96609375 36.671875 4.31390625 36.671875 9.75390625 36.671875 C8.08603928 46.6790768 3.25973706 53.98298793 -4.98046875 59.921875 C-13.067639 64.6221107 -23.22751838 65.26879472 -32.24609375 63.671875 C-32.57609375 64.331875 -32.90609375 64.991875 -33.24609375 65.671875 C-33.90609375 65.011875 -34.56609375 64.351875 -35.24609375 63.671875 C-35.90609375 63.671875 -36.56609375 63.671875 -37.24609375 63.671875 C-37.24609375 63.011875 -37.24609375 62.351875 -37.24609375 61.671875 C-38.46296875 61.465625 -39.67984375 61.259375 -40.93359375 61.046875 C-41.96033203 60.87285156 -41.96033203 60.87285156 -43.0078125 60.6953125 C-45.29184876 60.51723682 -45.29184876 60.51723682 -47.37109375 61.609375 C-51.69556416 63.20754885 -55.98040088 63.14762857 -60.55859375 63.296875 C-61.53103027 63.33409668 -62.5034668 63.37131836 -63.50537109 63.40966797 C-88.58413836 64.30401349 -88.58413836 64.30401349 -92.24609375 62.671875 C-93.52734375 60.80078125 -93.52734375 60.80078125 -94.74609375 58.234375 C-98.07690349 51.6935621 -102.12844948 45.73520582 -106.28320312 39.69165039 C-106.79431641 38.94133545 -107.30542969 38.19102051 -107.83203125 37.41796875 C-108.5288501 36.40754517 -108.5288501 36.40754517 -109.23974609 35.37670898 C-110.24609375 33.671875 -110.24609375 33.671875 -110.24609375 31.671875 C-110.90609375 31.671875 -111.56609375 31.671875 -112.24609375 31.671875 C-112.08455811 32.20345215 -111.92302246 32.7350293 -111.7565918 33.28271484 C-110.64207701 38.49870802 -111.06134305 43.98523163 -111.05859375 49.296875 C-111.04634766 50.54984375 -111.03410156 51.8028125 -111.02148438 53.09375 C-111.01858398 54.88425781 -111.01858398 54.88425781 -111.015625 56.7109375 C-111.01151611 57.80615723 -111.00740723 58.90137695 -111.00317383 60.02978516 C-111.24609375 62.671875 -111.24609375 62.671875 -113.24609375 64.671875 C-113.90609375 64.671875 -114.56609375 64.671875 -115.24609375 64.671875 C-115.24609375 64.011875 -115.24609375 63.351875 -115.24609375 62.671875 C-116.70015625 62.8884375 -116.70015625 62.8884375 -118.18359375 63.109375 C-122.52661544 63.73234942 -126.88374609 64.20695359 -131.24609375 64.671875 C-132.32768955 61.4270876 -132.37300077 59.06922209 -132.37548828 55.65576172 C-132.37864044 54.41792938 -132.3817926 53.18009705 -132.38504028 51.90475464 C-132.38325078 50.55369023 -132.3811999 49.20262615 -132.37890625 47.8515625 C-132.37957977 46.46819034 -132.38055019 45.08481829 -132.38180542 43.70144653 C-132.38327916 40.80469636 -132.38113755 37.90797705 -132.37646484 35.01123047 C-132.37075707 31.29078159 -132.3740552 27.57040468 -132.38003731 23.84995842 C-132.38364256 20.99504041 -132.38250469 18.14013961 -132.37990952 15.2852211 C-132.3792407 13.91283281 -132.38006711 12.54044298 -132.38238907 11.16805649 C-132.38491611 9.25510435 -132.38038457 7.34214676 -132.37548828 5.42919922 C-132.37469269 4.3390451 -132.37389709 3.24889099 -132.37307739 2.1257019 C-132.24609375 -0.328125 -132.24609375 -0.328125 -131.24609375 -1.328125 C-124.47760071 -3.04954418 -116.85831014 -3.8571385 -110.24609375 -1.328125 C-104.43834579 3.88729972 -101.07418886 11.13837858 -97.6328125 18.03173828 C-95.80153083 21.51826645 -93.63190518 24.54488318 -91.24609375 27.671875 C-91.25133057 26.82890869 -91.25656738 25.98594238 -91.26196289 25.11743164 C-91.27897201 21.99959564 -91.29152781 18.88178323 -91.30102539 15.76391602 C-91.30606432 14.41267114 -91.31289552 13.06143174 -91.3215332 11.71020508 C-91.33361794 9.77167066 -91.33879203 7.833097 -91.34375 5.89453125 C-91.34898682 4.72672119 -91.35422363 3.55891113 -91.35961914 2.35571289 C-91.24609375 -0.328125 -91.24609375 -0.328125 -90.24609375 -1.328125 C-87.83022745 -1.42923122 -85.44364417 -1.4678234 -83.02734375 -1.4609375 C-82.29543823 -1.46189423 -81.56353271 -1.46285095 -80.80944824 -1.46383667 C-79.25252192 -1.46451906 -77.69559278 -1.4626607 -76.13867188 -1.45849609 C-73.78378664 -1.45320962 -71.42909753 -1.45840695 -69.07421875 -1.46484375 C-56.44215693 -1.46602144 -56.44215693 -1.46602144 -50.94140625 -0.640625 C-46.84893256 -0.29453843 -45.70270329 -0.62123592 -42.62109375 -3.203125 C-31.63911979 -12.24957864 -10.43986289 -8.52061537 0 0 Z M-70.24609375 12.671875 C-70.24609375 16.301875 -70.24609375 19.931875 -70.24609375 23.671875 C-66.94609375 23.671875 -63.64609375 23.671875 -60.24609375 23.671875 C-59.75109375 22.393125 -59.25609375 21.114375 -58.74609375 19.796875 C-58.46765625 19.07757812 -58.18921875 18.35828125 -57.90234375 17.6171875 C-57.13954357 15.69820039 -57.13954357 15.69820039 -57.24609375 13.671875 C-60.26099932 12.66690648 -62.28791067 12.56852197 -65.43359375 12.609375 C-67.81578125 12.6403125 -67.81578125 12.6403125 -70.24609375 12.671875 Z M-70.24609375 36.671875 C-70.24609375 40.301875 -70.24609375 43.931875 -70.24609375 47.671875 C-65.95609375 47.671875 -61.66609375 47.671875 -57.24609375 47.671875 C-56.10965409 44.26255603 -56.37861611 43.66852044 -57.68359375 40.484375 C-58.19921875 39.22625 -58.71484375 37.968125 -59.24609375 36.671875 C-62.87609375 36.671875 -66.50609375 36.671875 -70.24609375 36.671875 Z " fill="#00B4C4" transform="translate(132.24609375,7.328125)"/>
<path d="M0 0 C4.39832433 0.18032014 7.31961887 0.590896 10.68261719 3.55786133 C14.7665625 8.69627199 17.84252282 14.4029208 20.68457031 20.30322266 C23.31387698 25.22334123 26.43613668 29.86508002 29.43115234 34.5715332 C29.76115234 24.0115332 30.09115234 13.4515332 30.43115234 2.5715332 C36.04115234 2.5715332 41.65115234 2.5715332 47.43115234 2.5715332 C47.43115234 23.6915332 47.43115234 44.8115332 47.43115234 66.5715332 C30.43115234 66.5715332 30.43115234 66.5715332 26.43115234 65.5715332 C25.14990234 63.70043945 25.14990234 63.70043945 23.93115234 61.1340332 C20.60034261 54.5932203 16.54879661 48.63486402 12.39404297 42.59130859 C11.88292969 41.84099365 11.37181641 41.09067871 10.84521484 40.31762695 C10.148396 39.30720337 10.148396 39.30720337 9.4375 38.27636719 C8.43115234 36.5715332 8.43115234 36.5715332 8.43115234 34.5715332 C7.77115234 34.5715332 7.11115234 34.5715332 6.43115234 34.5715332 C6.59268799 35.10311035 6.75422363 35.6346875 6.9206543 36.18237305 C8.03516909 41.39836622 7.61590305 46.88488984 7.61865234 52.1965332 C7.63089844 53.44950195 7.64314453 54.7024707 7.65576172 55.9934082 C7.65866211 57.78391602 7.65866211 57.78391602 7.66162109 59.6105957 C7.66572998 60.70581543 7.66983887 61.80103516 7.67407227 62.92944336 C7.43115234 65.5715332 7.43115234 65.5715332 5.43115234 67.5715332 C4.77115234 67.5715332 4.11115234 67.5715332 3.43115234 67.5715332 C3.43115234 66.9115332 3.43115234 66.2515332 3.43115234 65.5715332 C1.97708984 65.7880957 1.97708984 65.7880957 0.49365234 66.0090332 C-3.84936934 66.63200763 -8.20649999 67.1066118 -12.56884766 67.5715332 C-13.65044346 64.3267458 -13.69575468 61.96888029 -13.69824219 58.55541992 C-13.70139435 57.31758759 -13.70454651 56.07975525 -13.70779419 54.80441284 C-13.70600469 53.45334843 -13.7039538 52.10228435 -13.70166016 50.7512207 C-13.70233367 49.36784854 -13.7033041 47.98447649 -13.70455933 46.60110474 C-13.70603307 43.70435457 -13.70389146 40.80763525 -13.69921875 37.91088867 C-13.69351098 34.19043979 -13.69680911 30.47006288 -13.70279121 26.74961662 C-13.70639646 23.89469862 -13.7052586 21.03979781 -13.70266342 18.1848793 C-13.7019946 16.81249101 -13.70282101 15.44010118 -13.70514297 14.06771469 C-13.70767001 12.15476255 -13.70313848 10.24180496 -13.69824219 8.32885742 C-13.69744659 7.23870331 -13.696651 6.14854919 -13.6958313 5.02536011 C-13.38898706 -0.9040859 -4.64393176 0.21602428 0 0 Z " fill="#00B6C5" transform="translate(13.56884765625,4.428466796875)"/>
<path d="M0 0 C1.07488174 0.00303635 1.07488174 0.00303635 2.17147827 0.00613403 C2.90812714 0.00517731 3.644776 0.00422058 4.40374756 0.00323486 C5.96906621 0.00255265 7.53438767 0.00440982 9.09970093 0.00857544 C11.4765577 0.0138777 13.85322153 0.00865571 16.23007202 0.00222778 C17.75220785 0.00288945 19.27434356 0.00417244 20.79647827 0.00613403 C21.50092072 0.0041098 22.20536316 0.00208557 22.93115234 0 C27.3573398 0.02061019 31.52840549 0.42404545 35.88241577 1.13894653 C35.88241577 5.97753215 33.31511636 9.03854537 30.52694702 12.86160278 C27.88241577 15.13894653 27.88241577 15.13894653 24.45663452 15.63504028 C21.17870732 15.35202799 18.08261793 14.89509186 14.88241577 14.13894653 C14.88241577 17.76894653 14.88241577 21.39894653 14.88241577 25.13894653 C18.51241577 24.80894653 22.14241577 24.47894653 25.88241577 24.13894653 C25.88241577 28.75894653 25.88241577 33.37894653 25.88241577 38.13894653 C22.25241577 38.13894653 18.62241577 38.13894653 14.88241577 38.13894653 C14.88241577 41.76894653 14.88241577 45.39894653 14.88241577 49.13894653 C15.88401733 48.97394653 16.8856189 48.80894653 17.91757202 48.63894653 C28.45089556 47.21280702 28.45089556 47.21280702 32.26132202 49.67800903 C33.99305214 51.74678729 35.43809743 53.86280015 36.88241577 56.13894653 C37.83100008 57.16800201 38.80683981 58.1733149 39.81991577 59.13894653 C40.50054077 59.79894653 41.18116577 60.45894653 41.88241577 61.13894653 C36.52773071 63.77031092 32.12835162 64.67015434 26.19491577 64.88894653 C25.07633179 64.95275513 25.07633179 64.95275513 23.93515015 65.01785278 C20.27847335 65.19399957 17.46594909 65.03482986 13.88241577 64.13894653 C13.88241577 43.34894653 13.88241577 22.55894653 13.88241577 1.13894653 C8.27241577 1.13894653 2.66241577 1.13894653 -3.11758423 1.13894653 C-3.11758423 12.35894653 -3.11758423 23.57894653 -3.11758423 35.13894653 C-5.90049774 32.35603302 -5.48695866 29.7105611 -5.56680298 25.97879028 C-5.5885408 25.27371841 -5.61027863 24.56864655 -5.63267517 23.84220886 C-5.67659199 22.35197565 -5.71579197 20.8615971 -5.75064087 19.37112427 C-5.80496019 17.08167462 -5.8751109 14.79311791 -5.94766235 12.50418091 C-5.98831136 11.05824336 -6.02805588 9.61228005 -6.06680298 8.16629028 C-6.08756393 7.47776474 -6.10832489 6.7892392 -6.12971497 6.07984924 C-6.16513496 4.43325763 -6.14674493 2.78566089 -6.11758423 1.13894653 C-4.41303555 -0.56560215 -2.27329177 0.01088965 0 0 Z " fill="#1F3B62" transform="translate(47.117584228515625,5.861053466796875)"/>
<path d="M0 0 C-0.53625 0.2475 -1.0725 0.495 -1.625 0.75 C-6.62897247 3.38366972 -10.7785938 5.62185868 -13 11 C-14.51480789 17.69333717 -14.32982312 23.86889711 -11 30 C-8.22739701 31.93798263 -8.22739701 31.93798263 -6 33 C-4.65724831 33.98731742 -3.32267727 34.98594743 -2 36 C-5.97516753 36.48477653 -8.40570562 36.06053541 -11.6875 33.875 C-15.93467242 30.4735035 -17.70748398 27.51760977 -18.34765625 22.0078125 C-18.63177424 15.69893614 -18.41469049 10.74741837 -14.5546875 5.58984375 C-10.35272828 1.29286535 -6.11559485 -0.5966434 0 0 Z " fill="#1F3E64" transform="translate(108,17)"/>
<path d="M0 0 C0.66 0 1.32 0 2 0 C2 21.45 2 42.9 2 65 C1.01 65.495 1.01 65.495 0 66 C-1.0815958 62.7552126 -1.12690702 60.39734709 -1.12939453 56.98388672 C-1.13254669 55.74605438 -1.13569885 54.50822205 -1.13894653 53.23287964 C-1.13715703 51.88181523 -1.13510615 50.53075115 -1.1328125 49.1796875 C-1.13348602 47.79631534 -1.13445644 46.41294329 -1.13571167 45.02957153 C-1.13718541 42.13282136 -1.1350438 39.23610205 -1.13037109 36.33935547 C-1.12466332 32.61890659 -1.12796145 28.89852968 -1.13394356 25.17808342 C-1.13754881 22.32316541 -1.13641094 19.46826461 -1.13381577 16.6133461 C-1.13314695 15.24095781 -1.13397336 13.86856798 -1.13629532 12.49618149 C-1.13882236 10.58322935 -1.13429082 8.67027176 -1.12939453 6.75732422 C-1.12859894 5.6671701 -1.12780334 4.57701599 -1.12698364 3.4538269 C-1 1 -1 1 0 0 Z " fill="#1F3B62" transform="translate(1,6)"/>
<path d="M0 0 C10.75646682 -0.49901135 19.68094506 0.3375794 28.24609375 7.328125 C32.65368052 11.52956628 35.57189705 16.0279331 37 22 C37.02672154 23.66645244 37.03085891 25.33361904 37 27 C34.39634072 27.22171552 31.79303507 27.42784859 29.1875 27.625 C28.44951172 27.68945312 27.71152344 27.75390625 26.95117188 27.8203125 C21.33984375 28.2265625 21.33984375 28.2265625 18 26 C22.95 26 27.9 26 33 26 C30.7904274 17.5105895 28.62680446 11.17902946 21.125 6.1875 C14.41051164 2.36675569 7.57495889 1.57917191 0 1 C0 0.67 0 0.34 0 0 Z " fill="#1E4167" transform="translate(104,0)"/>
<path d="M0 0 C0.33 0.66 0.66 1.32 1 2 C6.28 2 11.56 2 17 2 C15.33213303 12.0072018 10.50583081 19.31111293 2.265625 25.25 C-3.7919022 28.7706141 -11.08018887 29.77139125 -18 30 C-18.99 29.34 -19.98 28.68 -21 28 C-19.87464844 27.97873047 -19.87464844 27.97873047 -18.7265625 27.95703125 C-11.03867903 27.59877975 -5.54462608 26.02839277 1 22 C2.36125 21.195625 2.36125 21.195625 3.75 20.375 C8.31393275 15.55751543 11.3987654 9.4049384 13 3 C8.05 3 3.1 3 -2 3 C-1.34 2.67 -0.68 2.34 0 2 C0 1.34 0 0.68 0 0 Z " fill="#1D446A" transform="translate(125,42)"/>
<path d="M0 0 C1.18613892 0.00785522 1.18613892 0.00785522 2.39624023 0.01586914 C3.67724609 0.02070312 3.67724609 0.02070312 4.98413086 0.02563477 C5.88196289 0.03401367 6.77979492 0.04239258 7.70483398 0.05102539 C8.6065332 0.05553711 9.50823242 0.06004883 10.43725586 0.06469727 C12.67234712 0.07652315 14.90730835 0.09300319 17.14233398 0.11352539 C17.14233398 0.44352539 17.14233398 0.77352539 17.14233398 1.11352539 C11.53233398 1.11352539 5.92233398 1.11352539 0.14233398 1.11352539 C0.14233398 12.33352539 0.14233398 23.55352539 0.14233398 35.11352539 C-2.64057953 32.33061188 -2.22704044 29.68513996 -2.30688477 25.95336914 C-2.32862259 25.24829727 -2.35036041 24.5432254 -2.37275696 23.81678772 C-2.41667378 22.32655451 -2.45587376 20.83617596 -2.49072266 19.34570312 C-2.54504197 17.05625348 -2.61519268 14.76769677 -2.68774414 12.47875977 C-2.72839315 11.03282222 -2.76813766 9.5868589 -2.80688477 8.14086914 C-2.82764572 7.4523436 -2.84840668 6.76381805 -2.86979675 6.0544281 C-2.90521674 4.40783648 -2.88682672 2.76023975 -2.85766602 1.11352539 C-1.85766602 0.11352539 -1.85766602 0.11352539 0 0 Z " fill="#1D456A" transform="translate(43.857666015625,5.886474609375)"/>
<path d="M0 0 C2.13674853 2.02438969 3.80012716 4.04095527 5.3828125 6.51953125 C6.04446411 7.54904907 6.04446411 7.54904907 6.71948242 8.59936523 C7.18330322 9.32969971 7.64712402 10.06003418 8.125 10.8125 C9.10281051 12.34118042 10.080676 13.86982568 11.05859375 15.3984375 C11.79311768 16.55037598 11.79311768 16.55037598 12.54248047 17.72558594 C13.92327724 19.88027651 15.31917347 22.02409866 16.72265625 24.1640625 C17.13950684 24.80239014 17.55635742 25.44071777 17.98583984 26.09838867 C18.77339872 27.30372817 19.56398486 28.5070963 20.35791016 29.70825195 C23 33.77483105 23 33.77483105 23 36 C22.01 36 21.02 36 20 36 C19.65243652 35.33282959 19.30487305 34.66565918 18.94677734 33.97827148 C14.71361059 26.01621761 9.83728098 18.66763119 4.68359375 11.27929688 C3.77673828 9.95188477 3.77673828 9.95188477 2.8515625 8.59765625 C2.02906006 7.41441772 2.02906006 7.41441772 1.18994141 6.20727539 C0 4 0 4 0 0 Z " fill="#1E4167" transform="translate(20,34)"/>
<path d="" fill="#203B62" transform="translate(0,0)"/>
<path d="M0 0 C3 1 3 1 3 1 Z " fill="#203B62" transform="translate(123,1)"/>
<path d="M0 0 C2 1 2 1 2 1 Z " fill="#203B62" transform="translate(114,72)"/>
<path d="" fill="#203B62" transform="translate(0,0)"/>
<path d="" fill="#203B62" transform="translate(0,0)"/>
<path d="" fill="#203B62" transform="translate(0,0)"/>
<path d="" fill="#203B62" transform="translate(0,0)"/>
<path d="" fill="#203B62" transform="translate(0,0)"/>
<path d="" fill="#203B62" transform="translate(0,0)"/>
<path d="" fill="#203B62" transform="translate(0,0)"/>
<path d="" fill="#203B62" transform="translate(0,0)"/>
<path d="" fill="#203B62" transform="translate(0,0)"/>
<path d="" fill="#203B62" transform="translate(0,0)"/>
<path d="" fill="#203B62" transform="translate(0,0)"/>
<path d="" fill="#203B62" transform="translate(0,0)"/>
<path d="" fill="#00B7C6" transform="translate(0,0)"/>
<path d="" fill="#203B62" transform="translate(0,0)"/>
<path d="" fill="#00B7C6" transform="translate(0,0)"/>
<path d="" fill="#203B62" transform="translate(0,0)"/>
</svg>
