<?xml version="1.0" encoding="UTF-8"?>
<svg version="1.1" xmlns="http://www.w3.org/2000/svg" width="192" height="192">
<path d="M0 0 C63.36 0 126.72 0 192 0 C192 63.36 192 126.72 192 192 C128.64 192 65.28 192 0 192 C0 128.64 0 65.28 0 0 Z " fill="#FEFEFE" transform="translate(0,0)"/>
<path d="M0 0 C0.96119247 -0.00817749 1.92238495 -0.01635498 2.91270447 -0.02478027 C6.10512669 -0.04966322 9.29750423 -0.06616111 12.48999023 -0.08056641 C14.12527333 -0.08855192 14.12527333 -0.08855192 15.79359245 -0.09669876 C21.56811699 -0.12344776 27.34261981 -0.14281379 33.1171875 -0.15722656 C39.07350816 -0.17384423 45.02927228 -0.21859334 50.98538303 -0.26959801 C55.57088328 -0.30331478 60.15625244 -0.31480913 64.74186516 -0.32045364 C66.93663708 -0.32715788 69.13140063 -0.34235824 71.32605171 -0.36634445 C74.40662492 -0.39808176 77.48571142 -0.39801906 80.56640625 -0.390625 C81.46598053 -0.40703033 82.36555481 -0.42343567 83.29238892 -0.44033813 C90.75605762 -0.36737233 96.14777457 1.8099003 101.60377407 6.95368385 C106.00448692 12.10425876 106.59381901 16.54134758 106.48071289 23.15380859 C106.48801422 24.11748352 106.49531555 25.08115845 106.50283813 26.07403564 C106.51896631 29.23937897 106.49190395 32.40264728 106.46264648 35.56787109 C106.46160824 37.77929686 106.46264766 39.99072449 106.46566772 42.20214844 C106.46548865 46.82889492 106.44470786 51.45494172 106.40844727 56.08154297 C106.36307309 61.99971858 106.36198834 67.91687286 106.37548256 73.83517456 C106.38217891 78.39926158 106.36887065 82.96311753 106.34922409 87.52716064 C106.34154868 89.70874826 106.33921177 91.89036165 106.34239578 94.07196045 C106.34314104 97.12577925 106.3177907 100.17830928 106.28540039 103.23193359 C106.29035522 104.12567688 106.29531006 105.01942017 106.30041504 105.94024658 C106.18189395 112.97350864 104.46911579 118.45983929 99.42358398 123.50537109 C92.77441957 127.68042782 87.71049851 128.63611116 79.98046875 128.59692383 C78.54980576 128.6072187 78.54980576 128.6072187 77.09024048 128.61772156 C73.95250357 128.63595092 70.8152685 128.63215752 67.67749023 128.62646484 C65.48705382 128.63102844 63.29661883 128.63633455 61.10618591 128.64234924 C56.5207639 128.65127275 51.93551612 128.64886573 47.35009766 128.63891602 C41.48465181 128.6274267 35.61980803 128.64764159 29.75444126 128.67683315 C25.2324392 128.69521125 20.710581 128.69489945 16.18855095 128.68919563 C14.02648003 128.68904262 11.86439924 128.69507029 9.70236397 128.70748711 C6.67489365 128.72242559 3.64853031 128.71169857 0.62109375 128.69458008 C-0.70785164 128.70908203 -0.70785164 128.70908203 -2.06364441 128.72387695 C-8.86810987 128.64363058 -14.39674052 127.02740323 -19.32250977 122.15771484 C-20.00506836 121.15417969 -20.00506836 121.15417969 -20.70141602 120.13037109 C-21.41104492 119.12296875 -21.41104492 119.12296875 -22.13500977 118.09521484 C-23.93149458 115.06792036 -24.39185451 112.53545913 -24.42454529 109.08955383 C-24.43459091 108.25557571 -24.44463654 107.4215976 -24.45498657 106.56234741 C-24.46081757 105.65062775 -24.46664856 104.73890808 -24.47265625 103.79956055 C-24.48244003 102.83661575 -24.49222382 101.87367096 -24.50230408 100.88154602 C-24.532256 97.68976219 -24.55364401 94.49802028 -24.57250977 91.30615234 C-24.57908159 90.21563253 -24.58565342 89.12511272 -24.59242439 88.00154686 C-24.62501847 82.22817659 -24.64946823 76.45482478 -24.66894531 70.68139648 C-24.68675312 65.90605784 -24.72156579 61.13131027 -24.77148438 56.35620117 C-24.83170903 50.58847606 -24.86242451 44.82129873 -24.872118 39.05327415 C-24.88067046 36.85765397 -24.89948328 34.66204833 -24.92886162 32.46660805 C-24.96783515 29.38814374 -24.96880264 26.31180736 -24.9609375 23.2331543 C-24.98093811 22.33155579 -25.00093872 21.42995728 -25.02154541 20.5010376 C-24.94615542 13.90498092 -22.96556026 9.84009257 -18.26391602 5.19287109 C-15.98067689 3.5561879 -13.81525726 2.41947746 -11.26391602 1.19287109 C-7.80586611 -0.53615386 -3.80767916 0.01775171 0 0 Z " fill="#FBFCFC" transform="translate(55.263916015625,31.80712890625)"/>
<path d="M0 0 C4.95 0 9.9 0 15 0 C18.55459898 3.82778812 20.54212034 6.57405517 23 11 C24.35901466 12.97956186 25.73941381 14.94460992 27.140625 16.89453125 C28.51163753 18.86633919 29.88142754 20.8389977 31.25 22.8125 C32.29027344 24.30813477 32.29027344 24.30813477 33.3515625 25.83398438 C36.61295642 30.529267 39.82832038 35.24248057 43 40 C43.33 26.8 43.66 13.6 44 0 C49.919375 -0.0825 55.83875 -0.165 61.9375 -0.25 C63.78722412 -0.28641602 65.63694824 -0.32283203 67.54272461 -0.36035156 C77.49449657 -0.47498471 85.06095546 -0.20344216 92.9375 6.5 C96.71063476 11.07349668 97.49449448 14.53456117 97.390625 20.39453125 C96.5446769 26.03700506 93.01366974 30.15111435 89 34 C89.721875 34.20625 90.44375 34.4125 91.1875 34.625 C95.34528718 36.65769595 97.91410244 39.82820488 100 44 C100.50134255 50.44032357 100.97948918 56.60843401 97 62 C90.74178749 69.04048908 83.20565443 70.904695 74.00941467 71.56504822 C71.04099993 71.72133532 68.07587141 71.79162348 65.10375977 71.83056641 C63.57019529 71.86030628 62.03692239 71.91521088 60.50512695 71.99462891 C55.46529126 72.25550441 50.91333787 72.25242604 46 71 C42.52581683 67.85823789 40.96292979 64.1954409 39 60 C37.71502768 58.04395928 36.38977087 56.11384093 35.02734375 54.2109375 C34.35509766 53.24929687 33.68285156 52.28765625 32.99023438 51.296875 C32.31283203 50.33265625 31.63542969 49.3684375 30.9375 48.375 C29.57074944 46.42508529 28.20485157 44.47457259 26.83984375 42.5234375 C26.24550537 41.67700684 25.65116699 40.83057617 25.03881836 39.95849609 C22.3133188 36.0035681 19.66428246 31.99642368 17 28 C16.67 42.19 16.34 56.38 16 71 C10.72 71 5.44 71 0 71 C0 47.57 0 24.14 0 0 Z " fill="#05ACB2" transform="translate(45,60)"/>
<path d="M0 0 C0.96119247 -0.00817749 1.92238495 -0.01635498 2.91270447 -0.02478027 C6.10512669 -0.04966322 9.29750423 -0.06616111 12.48999023 -0.08056641 C14.12527333 -0.08855192 14.12527333 -0.08855192 15.79359245 -0.09669876 C21.56811699 -0.12344776 27.34261981 -0.14281379 33.1171875 -0.15722656 C39.07350816 -0.17384423 45.02927228 -0.21859334 50.98538303 -0.26959801 C55.57088328 -0.30331478 60.15625244 -0.31480913 64.74186516 -0.32045364 C66.93663708 -0.32715788 69.13140063 -0.34235824 71.32605171 -0.36634445 C74.40662492 -0.39808176 77.48571142 -0.39801906 80.56640625 -0.390625 C81.46598053 -0.40703033 82.36555481 -0.42343567 83.29238892 -0.44033813 C90.75605762 -0.36737233 96.14777457 1.8099003 101.60377407 6.95368385 C106.00448692 12.10425876 106.59381901 16.54134758 106.48071289 23.15380859 C106.48801422 24.11748352 106.49531555 25.08115845 106.50283813 26.07403564 C106.51896631 29.23937897 106.49190395 32.40264728 106.46264648 35.56787109 C106.46160824 37.77929686 106.46264766 39.99072449 106.46566772 42.20214844 C106.46548865 46.82889492 106.44470786 51.45494172 106.40844727 56.08154297 C106.36307309 61.99971858 106.36198834 67.91687286 106.37548256 73.83517456 C106.38217891 78.39926158 106.36887065 82.96311753 106.34922409 87.52716064 C106.34154868 89.70874826 106.33921177 91.89036165 106.34239578 94.07196045 C106.34314104 97.12577925 106.3177907 100.17830928 106.28540039 103.23193359 C106.29035522 104.12567688 106.29531006 105.01942017 106.30041504 105.94024658 C106.18189395 112.97350864 104.46911579 118.45983929 99.42358398 123.50537109 C92.77441957 127.68042782 87.71049851 128.63611116 79.98046875 128.59692383 C78.54980576 128.6072187 78.54980576 128.6072187 77.09024048 128.61772156 C73.95250357 128.63595092 70.8152685 128.63215752 67.67749023 128.62646484 C65.48705382 128.63102844 63.29661883 128.63633455 61.10618591 128.64234924 C56.5207639 128.65127275 51.93551612 128.64886573 47.35009766 128.63891602 C41.48465181 128.6274267 35.61980803 128.64764159 29.75444126 128.67683315 C25.2324392 128.69521125 20.710581 128.69489945 16.18855095 128.68919563 C14.02648003 128.68904262 11.86439924 128.69507029 9.70236397 128.70748711 C6.67489365 128.72242559 3.64853031 128.71169857 0.62109375 128.69458008 C-0.70785164 128.70908203 -0.70785164 128.70908203 -2.06364441 128.72387695 C-8.86810987 128.64363058 -14.39674052 127.02740323 -19.32250977 122.15771484 C-20.00506836 121.15417969 -20.00506836 121.15417969 -20.70141602 120.13037109 C-21.41104492 119.12296875 -21.41104492 119.12296875 -22.13500977 118.09521484 C-23.93149458 115.06792036 -24.39185451 112.53545913 -24.42454529 109.08955383 C-24.43459091 108.25557571 -24.44463654 107.4215976 -24.45498657 106.56234741 C-24.46081757 105.65062775 -24.46664856 104.73890808 -24.47265625 103.79956055 C-24.48244003 102.83661575 -24.49222382 101.87367096 -24.50230408 100.88154602 C-24.532256 97.68976219 -24.55364401 94.49802028 -24.57250977 91.30615234 C-24.57908159 90.21563253 -24.58565342 89.12511272 -24.59242439 88.00154686 C-24.62501847 82.22817659 -24.64946823 76.45482478 -24.66894531 70.68139648 C-24.68675312 65.90605784 -24.72156579 61.13131027 -24.77148438 56.35620117 C-24.83170903 50.58847606 -24.86242451 44.82129873 -24.872118 39.05327415 C-24.88067046 36.85765397 -24.89948328 34.66204833 -24.92886162 32.46660805 C-24.96783515 29.38814374 -24.96880264 26.31180736 -24.9609375 23.2331543 C-24.98093811 22.33155579 -25.00093872 21.42995728 -25.02154541 20.5010376 C-24.94615542 13.90498092 -22.96556026 9.84009257 -18.26391602 5.19287109 C-15.98067689 3.5561879 -13.81525726 2.41947746 -11.26391602 1.19287109 C-7.80586611 -0.53615386 -3.80767916 0.01775171 0 0 Z M-18.26391602 13.19287109 C-19.58163287 17.14602164 -19.41967369 20.9295543 -19.42504883 25.05126953 C-19.43001373 25.95729919 -19.43497864 26.86332886 -19.44009399 27.79681396 C-19.45471612 30.79863237 -19.46151825 33.8003979 -19.46704102 36.80224609 C-19.47279309 38.88869224 -19.47855082 40.97513836 -19.48431396 43.06158447 C-19.49482455 47.43965908 -19.50066663 51.81771533 -19.50415039 56.19580078 C-19.50963061 61.79902503 -19.53364843 67.40200572 -19.56212234 73.00515366 C-19.58077069 77.31692202 -19.58595553 81.62863203 -19.58748627 85.94043732 C-19.59050912 88.00565165 -19.59852521 90.07086504 -19.61167145 92.13603973 C-19.62877519 95.02984483 -19.62684087 97.92305903 -19.62036133 100.81689453 C-19.62957611 101.66598389 -19.63879089 102.51507324 -19.64828491 103.38989258 C-19.61087831 108.73788719 -18.79816976 112.45442573 -16.26391602 117.19287109 C-10.87717784 122.1854577 -7.08115999 122.34900264 0.04760742 122.36987305 C1.01361877 122.37644424 1.97963013 122.38301544 2.97491455 122.38978577 C6.18176343 122.40954661 9.3885654 122.4211879 12.59545898 122.43115234 C13.68939217 122.43522787 14.78332535 122.4393034 15.91040802 122.44350243 C21.70093091 122.46437557 27.49143002 122.47867161 33.28198242 122.48803711 C39.26541516 122.499101 45.24847595 122.53349743 51.23177719 122.57320881 C55.83002416 122.59934682 60.42818216 122.60772649 65.02649689 122.61131859 C67.23210409 122.61619222 69.43770712 122.62782818 71.64324188 122.64635658 C74.73145549 122.67068638 77.81870245 122.66979393 80.90698242 122.6628418 C81.81734253 122.67565186 82.72770264 122.68846191 83.66564941 122.70166016 C89.18115122 122.65643123 92.38006599 121.90710443 96.73608398 118.19287109 C100.63361373 112.68257042 100.8925093 107.89018031 100.91308594 101.31860352 C100.91965714 100.41096756 100.92622833 99.5033316 100.93299866 98.56819153 C100.95272542 95.56157347 100.96439235 92.55500533 100.97436523 89.54833984 C100.97844076 88.52151911 100.98251629 87.49469837 100.98671532 86.43676186 C101.00757252 81.00284654 101.02187626 75.56895645 101.03125 70.13500977 C101.04231895 64.52264688 101.07672565 58.91067998 101.1164217 53.29845715 C101.1425641 48.9824398 101.15093969 44.66651719 101.15453148 40.35042763 C101.15940288 38.28158199 101.17103257 36.21274073 101.18956947 34.1439724 C101.21391199 31.24743603 101.21300482 28.35192956 101.20605469 25.45532227 C101.21886475 24.60263763 101.2316748 23.749953 101.24487305 22.87142944 C101.19802018 17.5082881 100.40437653 14.37016151 96.73608398 10.19287109 C91.67618658 5.70228234 87.41412747 5.61758333 80.97045898 5.67529297 C80.00386353 5.66828369 79.03726807 5.66127441 78.04138184 5.65405273 C74.85598768 5.63649156 71.6714867 5.64808921 68.48608398 5.66162109 C66.26700673 5.65892565 64.04793064 5.65504279 61.82885742 5.65002441 C57.18193295 5.64413189 52.53531637 5.6526847 47.88842773 5.67138672 C41.93641653 5.69417577 35.98512683 5.68105142 30.03314209 5.65709686 C25.45201191 5.64263246 20.87105236 5.64724791 16.28991699 5.65760803 C14.0954988 5.66027352 11.90106505 5.65701183 9.70666504 5.64768982 C6.6379298 5.637514 3.57035775 5.65304063 0.50170898 5.67529297 C-0.40236694 5.66719604 -1.30644287 5.65909912 -2.23791504 5.65075684 C-9.02971479 5.7418477 -13.82588291 7.82051523 -18.26391602 13.19287109 Z " fill="#143953" transform="translate(55.263916015625,31.80712890625)"/>
<path d="M0 0 C4.95 0 9.9 0 15 0 C18.55590002 3.82894794 20.543739 6.57207881 23 11 C24.34748588 12.96767447 25.71613971 14.92101853 27.10546875 16.859375 C28.46736582 18.82207069 29.82804125 20.78561463 31.1875 22.75 C32.55557329 24.72424687 33.92405306 26.69821214 35.29296875 28.671875 C35.92807373 29.60314209 36.56317871 30.53440918 37.2175293 31.49389648 C38.89360084 33.94190962 38.89360084 33.94190962 40.58911133 35.80493164 C45.27889445 41.20843154 44.56583535 47.08185572 44.3125 53.9375 C44.28994141 55.09830078 44.26738281 56.25910156 44.24414062 57.45507812 C44.18550578 60.30473166 44.10348837 63.1516815 44 66 C40.81695772 62.95168663 38.45788608 59.44919918 36 55.8125 C35.02223823 54.37753411 34.04437039 52.94264048 33.06640625 51.5078125 C32.56383301 50.76821289 32.06125977 50.02861328 31.54345703 49.26660156 C29.02211481 45.56395348 26.47875896 41.87649288 23.9375 38.1875 C21.60762995 34.8029679 19.27929453 31.41894179 17 28 C16.67 42.19 16.34 56.38 16 71 C10.72 71 5.44 71 0 71 C0 47.57 0 24.14 0 0 Z " fill="#133A54" transform="translate(45,60)"/>
<path d="M0 0 C3.39668836 -0.1081174 6.78992439 -0.18737188 10.1875 -0.25 C11.14720703 -0.28351563 12.10691406 -0.31703125 13.09570312 -0.3515625 C17.4990806 -0.4125089 20.24021206 -0.4276764 24.13671875 1.765625 C26.08176156 4.09804531 26.68338837 5.01051565 26.625 8 C26.63789063 8.66 26.65078125 9.32 26.6640625 10 C25.55210156 13.3489647 24.06827527 14.2729011 21 16 C17.38079231 16.47840102 13.82990452 16.37720284 10.1875 16.25 C9.20845703 16.23195313 8.22941406 16.21390625 7.22070312 16.1953125 C4.81337997 16.14834034 2.40656257 16.07660146 0 16 C0 10.72 0 5.44 0 0 Z " fill="#FAFDFD" transform="translate(104,101)"/>
<path d="M0 0 C3.10468645 -0.08083562 6.20727569 -0.14041718 9.3125 -0.1875 C10.19357422 -0.21263672 11.07464844 -0.23777344 11.98242188 -0.26367188 C13.25375977 -0.27817383 13.25375977 -0.27817383 14.55078125 -0.29296875 C15.72120972 -0.31653442 15.72120972 -0.31653442 16.9152832 -0.34057617 C19.5797482 0.09471235 20.42895896 0.82719222 22 3 C22.75869121 9.82822086 22.75869121 9.82822086 20.55078125 13.23828125 C16.7280291 15.87849751 13.27619916 15.43387684 8.75 15.25 C7.90953125 15.23195313 7.0690625 15.21390625 6.203125 15.1953125 C4.13492605 15.14830798 2.06731559 15.07656724 0 15 C0 10.05 0 5.1 0 0 Z " fill="#F8FCFC" transform="translate(104,73)"/>
</svg>
